# Blender 4.1.1
# www.blender.org
mtllib ballons.mtl
o Plane
v 1.158667 -0.475639 -0.000000
v 0.000000 1.607787 0.000000
v -1.158667 -0.475638 0.000000
v 0.292451 -0.475639 -0.000000
v -0.292451 -0.475638 0.000000
v -0.000000 -0.475638 -0.492947
vn -0.0000 -0.0000 1.0000
vn -0.8538 -0.1199 0.5066
vn 0.8538 -0.1199 0.5066
vt 0.025923 0.015884
vt 0.336046 0.189967
vt 0.022044 0.994649
vt 0.705425 0.466348
vt 0.959941 0.714748
vt 0.548653 0.290846
s 0
usemtl Material.005
f 3/1/1 5/2/1 2/3/1
f 2/3/1 4/4/1 1/5/1
f 4/4/2 2/3/2 6/6/2
f 6/6/3 2/3/3 5/2/3
