# Blender 3.6.2
# www.blender.org
mtllib flower_blue.mtl
g Flower.007_Cylinder.003
v 10.636732 -0.206005 6.267588
v 10.691895 -0.206005 6.307583
v 10.670810 -0.206005 6.372411
v 10.687818 2.520096 6.325506
v 10.602703 -0.206005 6.372343
v 10.581676 -0.206005 6.307618
v 10.330898 0.923521 6.277164
v 10.281922 1.626087 6.286308
v 10.433511 2.046185 6.293384
v 10.464062 2.046185 6.315580
v 10.319456 1.624623 6.313403
v 10.376698 0.924294 6.310558
v 10.452489 2.045003 6.351480
v 10.305189 1.624837 6.357197
v 10.359154 0.924172 6.364639
v 10.414325 2.049277 6.351530
v 10.258567 1.627613 6.357245
v 10.302521 0.923393 6.364612
v 10.402489 2.050736 6.315560
v 10.244141 1.628430 6.313378
v 10.284663 0.924352 6.310557
v 10.655416 -0.206005 6.361154
v 10.608374 -0.206005 6.353415
v 10.600510 -0.206005 6.307066
v 10.642683 -0.206005 6.286270
v 10.676578 -0.206005 6.319672
v 10.424017 1.652519 6.718294
v 10.766555 0.599327 6.418000
v 10.747254 1.086777 6.494568
v 10.623250 1.356339 6.594703
v 10.597180 1.354680 6.590390
v 10.715381 1.083722 6.489174
v 10.727386 0.597381 6.411567
v 10.592840 1.358626 6.564590
v 10.710068 1.089686 6.457884
v 10.720804 0.604473 6.372898
v 10.616160 1.366209 6.553474
v 10.738723 1.097276 6.443974
v 10.755915 0.610844 6.355479
v 10.634994 1.365301 6.572192
v 10.761749 1.095509 6.466672
v 10.784343 0.608644 6.383417
v 10.613789 -0.206005 6.297335
v 10.655087 -0.206005 6.296080
v 10.671037 -0.206005 6.335528
v 10.639582 -0.206005 6.361063
v 10.604240 -0.206005 6.337474
v 11.020258 1.336716 5.973029
v 10.650238 0.526533 6.273974
v 10.739302 0.954231 6.208008
v 10.876659 1.173970 6.101443
v 10.899549 1.167909 6.100770
v 10.767130 0.945914 6.207282
v 10.684719 0.517909 6.272925
v 10.908248 1.169543 6.122727
v 10.777926 0.948923 6.233912
v 10.698028 0.521380 6.305832
v 10.891315 1.179683 6.136538
v 10.756859 0.959855 6.251087
v 10.671763 0.532189 6.327178
v 10.871828 1.182873 6.123302
v 10.732950 0.963171 6.235063
v 10.642258 0.536263 6.307468
v 11.146968 1.427611 5.870627
v 11.156135 1.435289 5.891058
v 11.142653 1.453773 5.898603
v 11.124469 1.456381 5.883514
v 11.126467 1.438921 5.867036
v 11.015427 1.345619 5.994886
v 11.034913 1.342429 6.008123
v 11.051847 1.332289 5.994312
v 11.043148 1.330655 5.972356
v 10.620742 2.452753 6.403835
v 10.745226 2.443978 6.423944
v 10.802773 2.439961 6.311472
v 10.601354 2.454159 6.278935
v 10.702820 2.533040 6.328036
v 10.713856 2.446253 6.221852
v 10.563993 2.701666 6.971001
v 10.654872 2.695260 6.985681
v 11.319570 2.648568 6.587625
v 11.147348 2.660945 5.830896
v 10.376213 2.715286 5.761269
v 10.057692 2.737521 6.383783
v 10.071845 2.736494 6.474965
v 11.277557 2.651501 6.669733
v 11.212261 2.656352 5.896322
v 10.458344 2.709515 5.719595
v 11.267734 2.576207 6.437773
v 11.100819 2.496612 6.289416
v 10.985503 2.596285 5.828914
v 10.788774 2.518707 5.936083
v 11.093675 2.497130 6.243392
v 11.208039 2.580537 6.053208
v 10.320655 2.643090 5.909861
v 10.357131 2.549050 6.124412
v 10.742903 2.521940 5.928673
v 10.602217 2.623303 5.766998
v 10.191986 2.651940 6.568748
v 10.402406 2.545709 6.594139
v 10.335925 2.550530 6.165856
v 10.143465 2.655459 6.256160
v 10.777313 2.610603 6.895016
v 10.862030 2.513299 6.696116
v 10.435171 2.543390 6.627162
v 10.465764 2.632565 6.844688
v 10.903485 2.510386 6.675082
v 11.123707 2.586261 6.719257
v 10.826498 2.477179 6.579521
v 10.500157 2.500183 6.526804
v 10.449331 2.503870 6.199375
v 10.744261 2.483144 6.049729
v 10.977363 2.466648 6.284672
v 10.469539 1.594553 6.765847
v 10.505283 1.663452 6.732974
v 10.473231 1.675174 6.655900
v 10.415396 1.563694 6.709089
v 10.414510 1.654338 6.723245
v 10.417677 1.613521 6.641138
v 10.560475 1.741244 7.143002
v 10.586571 1.791542 7.119004
v 10.575800 2.075884 6.686635
v 10.235565 1.860076 6.361710
v 10.036059 1.442357 6.593264
v 10.213466 1.377473 7.019862
v 10.252993 1.400001 7.061297
v 10.599199 2.067326 6.742903
v 10.276122 1.905085 6.372487
v 10.037725 1.478732 6.543657
v 10.542548 1.998104 6.606924
v 10.491943 1.854766 6.563471
v 10.236805 1.748789 6.395221
v 10.281498 1.631985 6.491938
v 10.471992 1.843395 6.542556
v 10.375840 1.903090 6.432166
v 10.121037 1.411949 6.666499
v 10.260502 1.435741 6.737057
v 10.268326 1.606597 6.504051
v 10.126748 1.536651 6.496437
v 10.355233 1.453085 7.045861
v 10.457973 1.537236 6.960082
v 10.272313 1.431421 6.765458
v 10.219727 1.375855 6.903811
v 10.615742 1.815349 7.009041
v 10.601011 1.796208 6.852800
v 10.478443 1.559954 6.965521
v 10.526283 1.642915 7.091313
v 10.601852 1.814568 6.827761
v 10.622766 1.968765 6.799820
v 10.565937 1.745152 6.794919
v 10.472232 1.564532 6.881097
v 10.330292 1.483634 6.732303
v 10.336274 1.614257 6.554166
v 10.481911 1.775884 6.592865
v 11.099620 1.347257 5.980851
v 11.156600 1.403930 5.924019
v 11.140148 1.371325 5.957488
v 11.018198 1.388038 5.973694
v 11.074969 1.445667 5.915727
v 11.036071 1.423968 5.947198
v 11.120642 1.438858 5.950355
v 11.064206 1.380533 6.007723
v 11.094084 1.414979 5.990738
v 11.136050 1.392930 5.874638
v 11.078131 1.337815 5.931111
v 11.113056 1.357634 5.893393
v 11.026933 1.357162 5.927770
v 11.084707 1.412698 5.870281
v 11.047130 1.383460 5.888725
v 9.789721 0.510652 6.615573
v 10.524689 -0.206005 6.225624
v 10.584006 -0.206005 6.382748
v 9.875585 0.429238 6.354844
v 10.342485 -0.043669 6.068806
v 10.064526 0.206254 6.072046
v 10.554141 -0.061400 6.629455
v 10.024634 0.416752 6.749657
v 10.348547 0.182461 6.824382
v 10.561508 -0.206005 6.301765
v 10.467754 -0.028310 6.342557
v 10.245207 0.242541 6.435139
v 9.959937 0.435240 6.548928
v 11.218886 0.356929 6.720318
v 10.626936 -0.206005 6.443027
v 10.697573 -0.206005 6.331577
v 11.014632 0.292965 6.789546
v 10.614528 -0.078580 6.631490
v 10.747839 0.117775 6.804480
v 10.866575 -0.092511 6.233811
v 11.192125 0.283155 6.509499
v 11.086062 0.099081 6.270834
v 10.657352 -0.206005 6.383950
v 10.727242 -0.066514 6.423549
v 10.890478 0.146284 6.519553
v 11.096651 0.297680 6.644921
v 10.726656 0.471067 5.484413
v 10.767004 -0.206005 6.269464
v 10.608778 -0.206005 6.257499
v 10.915608 0.394146 5.662066
v 10.974049 -0.052659 6.176086
v 11.082290 0.183470 5.936792
v 10.409466 -0.069411 6.133395
v 10.518025 0.382349 5.632003
v 10.324675 0.160990 5.879505
v 10.687104 -0.206005 6.270579
v 10.689621 -0.038148 6.174013
v 10.699233 0.217754 5.946481
v 10.715736 0.399817 5.656776
v 9.871642 1.169152 6.228624
v 10.349646 0.759981 6.317223
v 9.982893 1.140164 6.138539
v 10.285208 0.928465 6.137567
v 10.145495 1.043333 6.103662
v 10.226537 0.908649 6.437061
v 9.941577 1.126209 6.349444
v 10.081513 1.021722 6.430268
v 10.264755 0.931843 6.289933
v 10.127863 1.054004 6.271199
v 9.966725 1.139902 6.245316
v 10.619931 1.810497 6.265564
v 10.607103 1.810630 6.224492
v 10.315225 1.453808 6.318617
v 10.579384 1.772140 6.336681
v 10.418579 1.578328 6.420347
v 10.512021 1.678110 6.430870
v 10.353023 1.579009 6.210446
v 10.533218 1.772619 6.188868
v 10.424051 1.679023 6.149204
v 10.612725 1.811364 6.245278
v 10.377799 1.586743 6.317922
v 10.452121 1.694628 6.295060
v 10.552257 1.776462 6.264050
v 10.840897 0.899043 6.083091
v 10.700006 0.636122 6.266150
v 10.863393 0.870550 6.151380
v 10.809140 0.727822 6.273348
v 10.867797 0.801304 6.236543
v 10.675081 0.728323 6.182505
v 10.768988 0.870903 6.087407
v 10.687903 0.801977 6.114639
v 10.738659 0.734019 6.233052
v 10.770986 0.813469 6.185786
v 10.814445 0.873733 6.121984
v 10.843864 0.726457 6.697044
v 10.726607 0.365180 6.386915
v 10.751555 0.696379 6.662862
v 10.653774 0.505285 6.516009
v 10.651606 0.610339 6.599771
v 10.860296 0.478032 6.460738
v 10.896990 0.677188 6.623940
v 10.928738 0.573768 6.525604
v 10.755754 0.499177 6.479882
v 10.787624 0.607007 6.545798
v 10.823626 0.690584 6.639108
vn 0.0022 0.0329 -0.9995
vn 0.0842 0.9964 -0.0017
vn 0.8912 -0.3418 -0.2983
vn 0.5651 -0.2035 0.7995
vn -0.5465 0.2624 0.7953
vn -0.8669 0.3962 -0.3025
vn -0.9229 -0.2417 -0.2999
vn -0.9355 -0.1797 -0.3042
vn -0.0003 0.0099 -1.0000
vn -0.0002 0.0084 -1.0000
vn -0.9462 0.0814 -0.3132
vn -0.0002 0.0140 -0.9999
vn -0.5813 -0.1490 0.7999
vn -0.5841 -0.1084 0.8044
vn -0.5810 0.0553 0.8120
vn 0.5796 0.1653 0.7979
vn 0.5825 0.1280 0.8027
vn 0.5834 -0.0276 0.8117
vn 0.9191 0.2571 -0.2986
vn 0.9320 0.1988 -0.3031
vn 0.9487 -0.0536 -0.3115
vn 0.4548 -0.1010 0.8848
vn -0.1680 0.9574 0.2348
vn -0.6171 -0.5281 0.5834
vn -0.8475 -0.1906 -0.4954
vn 0.0916 0.4567 -0.8849
vn 0.8670 0.4972 -0.0346
vn 0.9771 -0.1157 -0.1787
vn 0.9838 -0.0532 -0.1710
vn 0.4540 -0.1228 0.8825
vn 0.4512 -0.1242 0.8837
vn 0.9717 0.2024 -0.1219
vn 0.4589 -0.1191 0.8804
vn 0.1623 0.0613 -0.9848
vn 0.1578 0.1019 -0.9822
vn 0.1340 0.2629 -0.9555
vn -0.8842 0.1667 -0.4363
vn -0.8888 0.1303 -0.4394
vn -0.8859 -0.0206 -0.4634
vn -0.7005 0.0519 0.7118
vn -0.7036 -0.0086 0.7105
vn -0.6891 -0.2587 0.6769
vn -0.6337 -0.0081 -0.7735
vn -0.7266 0.6571 0.2005
vn -0.7481 0.6262 0.2196
vn -0.7001 -0.1802 -0.6910
vn 0.1690 0.4342 0.8848
vn 0.1349 0.3978 0.9075
vn 0.8550 -0.4010 0.3290
vn 0.7294 -0.5597 0.3935
vn 0.3566 -0.6553 -0.6659
vn 0.2276 -0.8313 -0.5071
vn -0.9257 0.0628 0.3731
vn -0.9232 0.1253 0.3634
vn -0.6325 0.0081 -0.7745
vn -0.6344 0.0066 -0.7729
vn -0.8739 0.3770 0.3070
vn -0.6281 0.0119 -0.7780
vn 0.0306 0.0444 0.9985
vn 0.0448 0.0838 0.9955
vn 0.0989 0.2381 0.9662
vn 0.9707 -0.0264 0.2389
vn 0.9666 -0.0629 0.2483
vn 0.9350 -0.2101 0.2858
vn 0.5514 -0.0490 -0.8328
vn 0.5435 -0.1087 -0.8324
vn 0.4880 -0.3524 -0.7985
vn -0.8546 0.4394 0.2767
vn -0.7414 -0.4307 -0.5146
vn 0.5445 -0.6811 0.4896
vn 0.0343 0.2513 0.9673
vn -0.4350 0.1971 -0.8786
vn -0.4264 0.8993 -0.0974
vn -0.2515 0.9440 -0.2135
vn -0.1166 0.4562 -0.8822
vn 0.0914 -0.9492 -0.3011
vn 0.9649 0.2625 0.0113
vn 0.4377 0.8631 0.2520
vn 0.4723 -0.5145 -0.7158
vn 0.5798 -0.1905 -0.7921
vn 0.3371 0.7762 0.5328
vn 0.2444 0.9537 -0.1755
vn 0.1246 0.9208 -0.3696
vn -0.0443 0.9740 -0.2222
vn 0.0703 0.9975 0.0003
vn 0.1225 0.9911 -0.0520
vn 0.0366 0.9972 -0.0659
vn -0.0030 0.9999 0.0117
vn 0.0583 0.9956 0.0735
vn 0.1359 0.9901 0.0342
vn -0.1777 0.9833 0.0387
vn -0.1999 0.9434 0.2645
vn -0.1999 0.9434 0.2646
vn 0.0285 0.9687 0.2465
vn 0.2894 0.9504 0.1141
vn 0.4345 0.8988 -0.0573
vn 0.4345 0.8989 -0.0573
vn 0.2339 0.9129 0.3346
vn 0.2339 0.9128 0.3346
vn 0.1329 0.8912 -0.4337
vn 0.1480 0.8146 -0.5608
vn 0.4964 0.8655 -0.0673
vn 0.6179 0.7814 -0.0871
vn 0.2611 0.8819 0.3925
vn 0.3138 0.8026 0.5073
vn -0.2478 0.9178 0.3103
vn -0.3441 0.8490 0.4010
vn -0.3271 0.9235 -0.2004
vn -0.4466 0.8564 -0.2591
vn -0.3271 0.9235 -0.2003
vn -0.2674 0.9483 -0.1707
vn -0.7521 0.6415 0.1510
vn -0.8772 0.4778 0.0477
vn -0.8764 0.4019 0.2653
vn -0.7288 0.5636 0.3888
vn -0.7406 0.5905 0.3206
vn -0.7776 0.5192 0.3546
vn -0.7444 0.5071 0.4344
vn -0.6869 0.5709 0.4496
vn -0.6845 0.6225 0.3794
vn -0.7649 0.3612 0.5333
vn -0.6061 0.3787 0.6994
vn -0.5717 0.5756 0.5847
vn -0.5638 0.7489 0.3484
vn -0.5869 0.8000 0.1249
vn -0.5868 0.8000 0.1248
vn -0.4194 0.7387 0.5276
vn -0.8909 0.4538 -0.0177
vn -0.9052 0.3959 -0.1544
vn -0.5503 0.8318 0.0728
vn -0.4649 0.8846 -0.0374
vn -0.5503 0.8318 0.0727
vn -0.3538 0.7599 0.5453
vn -0.2109 0.7917 0.5734
vn -0.5730 0.3375 0.7469
vn -0.4942 0.2456 0.8339
vn -0.9049 0.1483 0.3989
vn -0.9233 0.0011 0.3841
vn -0.8891 0.2175 0.4028
vn 0.9681 -0.0602 0.2431
vn 0.2763 -0.8113 -0.5152
vn -0.6399 -0.1250 -0.7582
vn -0.6664 0.7414 0.0791
vn 0.2124 0.5751 0.7900
vn 0.8136 -0.4166 0.4056
vn 0.7223 0.6435 -0.2533
vn 0.7600 0.6359 -0.1342
vn 0.8398 0.5034 -0.2033
vn 0.8118 0.5041 -0.2948
vn 0.6735 0.6410 -0.3681
vn 0.5685 0.7531 -0.3311
vn 0.6202 0.7558 -0.2102
vn 0.4600 0.8445 -0.2742
vn 0.5056 0.8470 -0.1641
vn 0.3666 0.9240 -0.1092
vn 0.5440 0.8375 -0.0517
vn 0.6612 0.7453 -0.0857
vn 0.7771 0.5003 -0.3819
vn -0.6366 0.6436 -0.4249
vn -0.5640 0.6360 -0.5267
vn -0.6671 0.5038 -0.5488
vn -0.7233 0.5044 -0.4716
vn -0.6990 0.6411 -0.3170
vn -0.6064 0.7531 -0.2553
vn -0.5408 0.7558 -0.3692
vn -0.4956 0.8445 -0.2028
vn -0.4351 0.8470 -0.3054
vn -0.3076 0.9240 -0.2273
vn -0.3684 0.8375 -0.4037
vn -0.4659 0.7453 -0.4768
vn -0.7722 0.5006 -0.3913
vn -0.0758 0.6435 0.7617
vn -0.1997 0.6360 0.7454
vn -0.1708 0.5035 0.8470
vn -0.0761 0.5042 0.8602
vn 0.0489 0.6410 0.7660
vn 0.0598 0.7531 0.6552
vn -0.0716 0.7558 0.6509
vn 0.0540 0.8445 0.5328
vn -0.0650 0.8470 0.5276
vn -0.0560 0.9240 0.3784
vn -0.1831 0.8375 0.5149
vn -0.2018 0.7453 0.6354
vn 0.0177 0.5004 0.8656
vn 0.7176 0.6715 0.1850
vn 0.6867 0.6616 0.3012
vn 0.8655 0.4593 0.1999
vn 0.7380 0.6715 0.0663
vn 0.5771 0.8159 0.0362
vn 0.5571 0.8143 0.1630
vn 0.4573 0.8888 0.0309
vn 0.4382 0.8872 0.1445
vn 0.2732 0.9548 0.1167
vn 0.4132 0.8738 0.2563
vn 0.5279 0.7993 0.2871
vn -0.7996 0.5453 0.2515
vn -0.8281 0.5449 0.1315
vn -0.8699 0.4109 0.2730
vn -0.7590 0.5375 0.3675
vn -0.6493 0.6790 0.3425
vn -0.6945 0.6854 0.2191
vn -0.5444 0.7855 0.2943
vn -0.5830 0.7912 0.1846
vn -0.4642 0.8733 0.1478
vn -0.4833 0.8715 0.0826
vn -0.6137 0.7862 0.0725
vn -0.4429 0.8711 0.2123
vn -0.7276 0.6798 0.0920
vn -0.4650 0.5556 0.6893
vn -0.5621 0.5551 0.6131
vn -0.5004 0.4480 0.7409
vn -0.3609 0.5477 0.7548
vn -0.2946 0.6791 0.6724
vn -0.4067 0.6854 0.6040
vn -0.2419 0.7828 0.5733
vn -0.3428 0.7888 0.5102
vn -0.2636 0.8806 0.3938
vn -0.4388 0.7835 0.4399
vn -0.5119 0.6798 0.5252
vn -0.1404 0.5733 -0.8072
vn -0.0206 0.5557 -0.8312
vn -0.1368 0.5846 -0.7997
vn -0.2579 0.5822 -0.7711
vn -0.2399 0.6614 -0.7107
vn -0.1151 0.6504 -0.7508
vn -0.1871 0.7671 -0.6137
vn -0.0737 0.7574 -0.6488
vn -0.0264 0.8540 -0.5196
vn 0.0408 0.7370 -0.6747
vn 0.0116 0.6282 -0.7780
vt 0.093664 0.621935
vt 0.052413 0.627486
vt 0.093644 0.622658
vt 0.052420 0.627236
vt 0.093754 0.622387
vt 0.052442 0.626425
vt 0.093409 0.621474
vt 0.052449 0.626174
vt 0.093290 0.621190
vt 0.052431 0.626830
vt 0.288789 0.630768
vt 0.190978 0.621067
vt 0.191020 0.622162
vt 0.288754 0.632070
vt 0.129989 0.618443
vt 0.130167 0.619342
vt 0.288776 0.631265
vt 0.191049 0.621491
vt 0.130050 0.618786
vt 0.288732 0.632876
vt 0.190945 0.622829
vt 0.130261 0.619896
vt 0.288718 0.633375
vt 0.190923 0.623244
vt 0.130270 0.620234
vt 0.153323 0.628055
vt 0.128160 0.622314
vt 0.153484 0.627442
vt 0.127788 0.622210
vt 0.153145 0.627330
vt 0.127412 0.622702
vt 0.152473 0.627864
vt 0.127552 0.623110
vt 0.152539 0.628312
vt 0.128014 0.622870
vt 0.288291 0.633001
vt 0.218014 0.633634
vt 0.218833 0.633235
vt 0.289209 0.632525
vt 0.175837 0.631948
vt 0.176603 0.631626
vt 0.288012 0.632191
vt 0.217842 0.632957
vt 0.175699 0.631399
vt 0.288759 0.631213
vt 0.218417 0.632141
vt 0.176375 0.630740
vt 0.289500 0.631419
vt 0.219027 0.632313
vt 0.176889 0.630879
vt 0.168964 0.634481
vt 0.168195 0.634346
vt 0.168459 0.634814
vt 0.169327 0.635239
vt 0.169474 0.635037
vt 0.287826 0.631276
vt 0.224378 0.630444
vt 0.225216 0.630656
vt 0.288773 0.631527
vt 0.187324 0.631580
vt 0.188095 0.631751
vt 0.288161 0.632121
vt 0.224712 0.631152
vt 0.187596 0.632154
vt 0.289316 0.632898
vt 0.225632 0.631799
vt 0.188530 0.632678
vt 0.289695 0.632530
vt 0.225942 0.631492
vt 0.188798 0.632429
vt 0.182811 0.648242
vt 0.175893 0.633191
vt 0.008294 0.630905
vt 0.023343 0.637209
vt 0.032830 0.623246
vt 0.015626 0.622668
vt 0.174533 0.637555
vt 0.029943 0.632507
vt 0.189900 0.614705
vt 0.355540 0.383911
vt 0.305581 0.384055
vt 0.322309 0.383682
vt 0.368325 0.383626
vt 0.957492 0.942946
vt 0.934816 0.943342
vt 0.939521 0.943237
vt 0.944695 0.942367
vt 0.943046 0.941926
vt 0.937025 0.942521
vt 0.382017 0.381297
vt 0.343333 0.380105
vt 0.337677 0.378595
vt 0.377693 0.380142
vt 0.361331 0.381758
vt 0.312549 0.381076
vt 0.304975 0.383893
vt 0.335877 0.378635
vt 0.314474 0.380748
vt 0.195903 0.383893
vt 0.109099 0.383238
vt 0.112659 0.383158
vt 0.208108 0.383621
vt 0.196351 0.380481
vt 0.101579 0.380200
vt 0.099969 0.380800
vt 0.190823 0.382537
vt 0.228054 0.376203
vt 0.135045 0.374832
vt 0.130488 0.375282
vt 0.212430 0.377745
vt 0.247199 0.376971
vt 0.163247 0.374552
vt 0.162039 0.374230
vt 0.243071 0.375868
vt 0.227329 0.381724
vt 0.147210 0.379747
vt 0.151020 0.379098
vt 0.240401 0.379500
vt 0.342516 0.380408
vt 0.324606 0.383455
vt 0.393878 0.383270
vt 0.398583 0.383165
vt 0.402108 0.381854
vt 0.396087 0.382448
vt 0.403757 0.382294
vt 0.199726 0.615904
vt 0.169435 0.635016
vt 0.168949 0.634507
vt 0.168254 0.634381
vt 0.168493 0.634812
vt 0.169283 0.635200
vt 0.169327 0.635239
vt 0.168195 0.634346
vt 0.237038 0.632266
vt 0.236597 0.622175
vt 0.270450 0.625073
vt 0.270700 0.630795
vt 0.237479 0.642358
vt 0.173451 0.648613
vt 0.172859 0.635072
vt 0.108990 0.644983
vt 0.108679 0.637877
vt 0.074931 0.637373
vt 0.108369 0.630770
vt 0.075017 0.639348
vt 0.172267 0.621530
vt 0.270950 0.636518
vt 0.075104 0.641323
s 1
g Flower.007_Base_Material
usemtl Base_Material
f 9/1/1 4/2/2 10/3/3
f 10/3/3 4/4/2 13/5/4
f 13/5/4 4/6/2 16/7/5
f 16/7/5 4/8/2 19/9/6
f 19/9/6 4/10/2 9/1/1
f 6/11/7 21/12/8 7/13/9 1/14/10
f 21/12/8 20/15/11 8/16/12 7/13/9
f 20/15/11 19/9/6 9/1/1 8/16/12
f 5/17/13 18/18/14 21/12/8 6/11/7
f 18/18/14 17/19/15 20/15/11 21/12/8
f 17/19/15 16/7/5 19/9/6 20/15/11
f 3/20/16 15/21/17 18/18/14 5/17/13
f 15/21/17 14/22/18 17/19/15 18/18/14
f 14/22/18 13/5/4 16/7/5 17/19/15
f 2/23/19 12/24/20 15/21/17 3/20/16
f 12/24/20 11/25/21 14/22/18 15/21/17
f 11/25/21 10/3/3 13/5/4 14/22/18
f 1/14/10 7/13/9 12/24/20 2/23/19
f 7/13/9 8/16/12 11/25/21 12/24/20
f 8/16/12 9/1/1 10/3/3 11/25/21
f 30/26/22 27/27/23 31/28/24
f 31/28/24 27/29/23 34/30/25
f 34/30/25 27/31/23 37/32/26
f 37/32/26 27/33/23 40/34/27
f 40/34/27 27/35/23 30/26/22
f 26/36/28 42/37/29 28/38/30 22/39/31
f 42/37/29 41/40/32 29/41/33 28/38/30
f 41/40/32 40/34/27 30/26/22 29/41/33
f 25/42/34 39/43/35 42/37/29 26/36/28
f 39/43/35 38/44/36 41/40/32 42/37/29
f 38/44/36 37/32/26 40/34/27 41/40/32
f 24/45/37 36/46/38 39/43/35 25/42/34
f 36/46/38 35/47/39 38/44/36 39/43/35
f 35/47/39 34/30/25 37/32/26 38/44/36
f 23/48/40 33/49/41 36/46/38 24/45/37
f 33/49/41 32/50/42 35/47/39 36/46/38
f 32/50/42 31/28/24 34/30/25 35/47/39
f 22/39/31 28/38/30 33/49/41 23/48/40
f 28/38/30 29/41/33 32/50/42 33/49/41
f 29/41/33 30/26/22 31/28/24 32/50/42
f 51/51/43 61/52/44 69/52/45 48/51/46
f 61/52/44 58/53/47 70/53/48 69/52/45
f 58/53/47 55/54/49 71/54/50 70/53/48
f 52/55/51 51/51/43 48/51/46 72/55/52
f 47/56/53 63/57/54 49/58/55 43/59/56
f 63/57/54 62/60/57 50/61/58 49/58/55
f 62/60/57 61/52/44 51/51/43 50/61/58
f 46/62/59 60/63/60 63/57/54 47/56/53
f 60/63/60 59/64/61 62/60/57 63/57/54
f 59/64/61 58/53/47 61/52/44 62/60/57
f 45/65/62 57/66/63 60/63/60 46/62/59
f 57/66/63 56/67/64 59/64/61 60/63/60
f 56/67/64 55/54/49 58/53/47 59/64/61
f 44/68/65 54/69/66 57/66/63 45/65/62
f 54/69/66 53/70/67 56/67/64 57/66/63
f 53/70/67 52/55/51 55/54/49 56/67/64
f 43/59/56 49/58/55 54/69/66 44/68/65
f 49/58/55 50/61/58 53/70/67 54/69/66
f 50/61/58 51/51/43 52/55/51 53/70/67
f 48/51/46 69/52/45 158/52/68 167/51/69
f 70/53/48 71/54/50 155/54/70 162/53/71
f 168/71/72 159/72/73 67/73/74 68/74/75
f 71/54/50 72/55/52 165/55/76 155/54/70
f 65/75/77 68/74/75 66/76/78
f 72/55/52 48/51/46 167/51/69 165/55/76
f 55/54/49 52/55/51 72/55/52 71/54/50
f 69/52/45 70/53/48 162/53/71 158/52/68
f 164/77/79 168/71/72 68/74/75 64/78/80
f 159/72/73 161/79/81 66/76/78 67/73/74
f 110/80/82 105/81/83 104/82/83 109/83/84
f 77/84/85 73/85/86 74/86/87
f 77/84/85 74/86/87 75/87/88
f 77/84/85 75/87/88 78/88/89
f 77/84/85 78/88/89 76/89/90
f 77/84/85 76/89/90 73/85/86
f 113/90/91 93/91/92 92/92/93 112/93/94
f 111/94/95 101/95/96 100/96/97 110/80/82
f 112/93/94 97/97/98 96/98/99 111/94/95
f 106/99/100 79/100/101 80/101/101 103/102/100
f 102/103/102 84/104/103 85/105/103 99/106/102
f 98/107/104 88/108/105 83/109/105 95/110/104
f 94/111/106 87/112/107 82/113/107 91/114/106
f 108/115/108 86/116/109 81/117/109 89/118/110
f 89/118/110 90/119/111 107/120/111 108/115/108
f 91/114/106 92/92/93 93/91/92 94/111/106
f 95/110/104 96/98/99 97/97/98 98/107/104
f 99/106/102 100/96/97 101/95/96 102/103/102
f 103/102/100 104/82/83 105/81/83 106/99/100
f 109/83/84 107/120/111 90/119/111 113/90/91
f 73/121/86 110/80/82 109/83/84 74/122/87
f 78/123/89 112/93/94 111/94/95 76/124/90
f 74/122/87 109/83/84 113/90/91 75/125/88
f 75/125/88 113/90/91 112/93/94 78/123/89
f 76/124/90 111/94/95 110/80/82 73/121/86
f 151/80/112 146/81/113 145/82/113 150/83/114
f 118/84/115 114/85/116 115/86/117
f 118/84/115 115/86/117 116/87/118
f 118/84/115 116/87/118 119/88/119
f 118/84/115 119/88/119 117/89/120
f 118/84/115 117/89/120 114/85/116
f 154/90/121 134/91/122 133/92/122 153/93/123
f 152/94/124 142/95/125 141/96/126 151/80/112
f 153/93/123 138/97/127 137/98/127 152/94/124
f 147/99/128 120/100/129 121/101/129 144/102/128
f 143/103/130 125/104/131 126/105/131 140/106/132
f 139/107/133 129/108/134 124/109/134 136/110/133
f 135/111/135 128/112/136 123/113/136 132/114/135
f 149/115/137 127/116/138 122/117/138 130/118/137
f 130/118/137 131/119/139 148/120/139 149/115/137
f 132/114/135 133/92/122 134/91/122 135/111/135
f 136/110/133 137/98/127 138/97/127 139/107/133
f 140/106/132 141/96/126 142/95/125 143/103/130
f 144/102/128 145/82/113 146/81/113 147/99/128
f 150/83/114 148/120/139 131/119/139 154/90/121
f 114/121/116 151/80/112 150/83/114 115/122/117
f 119/123/119 153/93/123 152/94/124 117/124/120
f 115/122/117 150/83/114 154/90/121 116/125/118
f 116/125/118 154/90/121 153/93/123 119/123/119
f 117/124/120 152/94/124 151/80/112 114/121/116
f 156/126/140 164/77/79 64/78/80 65/75/77
f 168/51/72 164/55/79 166/127/141 169/128/142
f 169/128/142 166/127/141 165/55/76 167/51/69
f 159/52/73 168/51/72 169/128/142 160/129/143
f 160/129/143 169/128/142 167/51/69 158/52/68
f 156/54/140 161/53/81 163/130/144 157/131/145
f 157/131/145 163/130/144 162/53/71 155/54/70
f 164/55/79 156/132/140 157/131/145 166/127/141
f 166/127/141 157/131/145 155/54/70 165/55/76
f 161/53/81 159/133/73 160/129/143 163/130/144
f 163/130/144 160/129/143 158/52/68 162/53/71
f 161/79/81 156/126/140 65/75/77 66/76/78
f 180/134/146 176/135/147 172/136/148 179/137/149
f 180/134/146 174/138/150 175/139/151 181/140/152
f 181/140/152 175/139/151 173/141/153 182/142/154
f 170/143/155 177/144/156 182/142/154
f 170/145/155 182/142/154 173/141/153
f 178/146/157 181/140/152 182/142/154 177/144/156
f 176/135/147 180/134/146 181/140/152 178/146/157
f 174/138/150 180/134/146 179/137/149 171/147/158
f 193/134/159 189/135/160 185/136/161 192/137/162
f 193/134/159 187/138/163 188/139/164 194/140/165
f 194/140/165 188/139/164 186/141/166 195/142/167
f 183/143/168 190/144/169 195/142/167
f 183/145/168 195/142/167 186/141/166
f 191/146/170 194/140/165 195/142/167 190/144/169
f 189/135/160 193/134/159 194/140/165 191/146/170
f 187/138/163 193/134/159 192/137/162 184/147/171
f 206/134/172 202/135/173 198/136/174 205/137/175
f 206/134/172 200/138/176 201/139/177 207/140/178
f 207/140/178 201/139/177 199/141/179 208/142/180
f 196/143/181 203/144/182 208/142/180
f 196/145/181 208/142/180 199/141/179
f 204/146/183 207/140/178 208/142/180 203/144/182
f 202/135/173 206/134/172 207/140/178 204/146/183
f 200/138/176 206/134/172 205/137/175 197/147/184
f 217/134/185 214/135/186 210/137/187
f 217/134/185 212/138/188 213/139/189 218/140/190
f 218/140/190 213/139/189 211/141/191 219/142/192
f 209/143/193 215/144/194 219/142/192
f 209/145/193 219/142/192 211/141/191
f 216/146/195 218/140/190 219/142/192 215/144/194
f 214/135/186 217/134/185 218/140/190 216/146/195
f 212/138/188 217/134/185 210/147/187
f 230/134/196 226/135/197 222/137/198
f 230/134/196 224/138/199 225/139/200 231/140/201
f 231/140/201 225/139/200 223/141/202 232/142/203
f 229/145/204 221/143/205 227/144/206 232/142/203
f 220/148/207 229/145/204 232/142/203 223/141/202
f 228/146/208 231/140/201 232/142/203 227/144/206
f 226/135/197 230/134/196 231/140/201 228/146/208
f 224/138/199 230/134/196 222/147/198
f 241/134/209 238/135/210 234/137/211
f 241/134/209 236/138/212 237/139/213 242/140/214
f 242/140/214 237/139/213 235/141/215 243/142/216
f 233/143/217 239/144/218 243/142/216
f 233/145/217 243/142/216 235/141/215
f 240/146/219 242/140/214 243/142/216 239/144/218
f 238/135/210 241/134/209 242/140/214 240/146/219
f 236/138/212 241/134/209 234/147/211
f 252/134/220 249/135/221 245/137/222
f 252/134/220 247/138/223 248/139/224 253/140/225
f 253/140/225 248/139/224 246/141/226 254/142/227
f 244/143/228 250/144/229 254/142/227
f 244/145/228 254/142/227 246/141/226
f 251/146/230 253/140/225 254/142/227 250/144/229
f 249/135/221 252/134/220 253/140/225 251/146/230
f 247/138/223 252/134/220 245/147/222
f 64/78/80 68/74/75 65/75/77
f 68/74/75 67/73/74 66/76/78
